<mxfile host="app.diagrams.net" modified="2021-05-21T05:20:18.811Z" agent="5.0 (Windows NT 10.0; Win64; x64) AppleWebKit/537.36 (KHTML, like Gecko) Chrome/90.0.4430.212 Safari/537.36" etag="H4XAV1G6kbvGb05BRDrc" version="14.6.13" type="github">
  <diagram id="C5RBs43oDa-KdzZeNtuy" name="Page-1">
    <mxGraphModel dx="1056" dy="601" grid="1" gridSize="10" guides="1" tooltips="1" connect="1" arrows="1" fold="1" page="1" pageScale="1" pageWidth="827" pageHeight="1169" math="0" shadow="0">
      <root>
        <mxCell id="WIyWlLk6GJQsqaUBKTNV-0" />
        <mxCell id="WIyWlLk6GJQsqaUBKTNV-1" parent="WIyWlLk6GJQsqaUBKTNV-0" />
        <mxCell id="hwNWxIIS-WWgifaIi0Sa-2" value="" style="ellipse;whiteSpace=wrap;html=1;" vertex="1" parent="WIyWlLk6GJQsqaUBKTNV-1">
          <mxGeometry x="290" y="100" width="120" height="80" as="geometry" />
        </mxCell>
        <mxCell id="hwNWxIIS-WWgifaIi0Sa-4" value="" style="endArrow=none;html=1;" edge="1" parent="WIyWlLk6GJQsqaUBKTNV-1">
          <mxGeometry width="50" height="50" relative="1" as="geometry">
            <mxPoint x="210" y="140" as="sourcePoint" />
            <mxPoint x="290" y="140" as="targetPoint" />
          </mxGeometry>
        </mxCell>
        <mxCell id="hwNWxIIS-WWgifaIi0Sa-5" value="" style="endArrow=none;html=1;" edge="1" parent="WIyWlLk6GJQsqaUBKTNV-1">
          <mxGeometry width="50" height="50" relative="1" as="geometry">
            <mxPoint x="410" y="139.5" as="sourcePoint" />
            <mxPoint x="490" y="139.5" as="targetPoint" />
          </mxGeometry>
        </mxCell>
        <mxCell id="hwNWxIIS-WWgifaIi0Sa-6" value="" style="endArrow=none;html=1;" edge="1" parent="WIyWlLk6GJQsqaUBKTNV-1">
          <mxGeometry width="50" height="50" relative="1" as="geometry">
            <mxPoint x="350" y="100" as="sourcePoint" />
            <mxPoint x="350" y="50" as="targetPoint" />
          </mxGeometry>
        </mxCell>
        <mxCell id="hwNWxIIS-WWgifaIi0Sa-7" value="" style="endArrow=none;html=1;" edge="1" parent="WIyWlLk6GJQsqaUBKTNV-1">
          <mxGeometry width="50" height="50" relative="1" as="geometry">
            <mxPoint x="350" y="240" as="sourcePoint" />
            <mxPoint x="350" y="180" as="targetPoint" />
          </mxGeometry>
        </mxCell>
        <mxCell id="hwNWxIIS-WWgifaIi0Sa-12" value="LOGIN CREDENTIALS" style="text;html=1;strokeColor=none;fillColor=none;align=center;verticalAlign=middle;whiteSpace=wrap;rounded=0;" vertex="1" parent="WIyWlLk6GJQsqaUBKTNV-1">
          <mxGeometry x="330" y="130" width="40" height="20" as="geometry" />
        </mxCell>
        <mxCell id="hwNWxIIS-WWgifaIi0Sa-13" value="EMPLOYEES LOGIN" style="text;html=1;strokeColor=none;fillColor=none;align=center;verticalAlign=middle;whiteSpace=wrap;rounded=0;" vertex="1" parent="WIyWlLk6GJQsqaUBKTNV-1">
          <mxGeometry x="200" y="80" width="40" height="20" as="geometry" />
        </mxCell>
        <mxCell id="hwNWxIIS-WWgifaIi0Sa-14" value="CUSTOMER LOGIN" style="text;html=1;strokeColor=none;fillColor=none;align=center;verticalAlign=middle;whiteSpace=wrap;rounded=0;" vertex="1" parent="WIyWlLk6GJQsqaUBKTNV-1">
          <mxGeometry x="430" y="70" width="40" height="20" as="geometry" />
        </mxCell>
        <mxCell id="hwNWxIIS-WWgifaIi0Sa-15" value="ADMIN" style="text;html=1;strokeColor=none;fillColor=none;align=center;verticalAlign=middle;whiteSpace=wrap;rounded=0;" vertex="1" parent="WIyWlLk6GJQsqaUBKTNV-1">
          <mxGeometry x="240" y="30" width="190" height="20" as="geometry" />
        </mxCell>
        <mxCell id="hwNWxIIS-WWgifaIi0Sa-16" value="" style="strokeWidth=2;html=1;shape=mxgraph.flowchart.annotation_2;align=left;labelPosition=right;pointerEvents=1;direction=south;" vertex="1" parent="WIyWlLk6GJQsqaUBKTNV-1">
          <mxGeometry x="140" y="180" width="420" height="50" as="geometry" />
        </mxCell>
        <mxCell id="hwNWxIIS-WWgifaIi0Sa-17" value="" style="rounded=0;whiteSpace=wrap;html=1;" vertex="1" parent="WIyWlLk6GJQsqaUBKTNV-1">
          <mxGeometry x="300" y="230" width="90" height="40" as="geometry" />
        </mxCell>
        <mxCell id="hwNWxIIS-WWgifaIi0Sa-18" value="PRODUCTS" style="text;html=1;strokeColor=none;fillColor=none;align=center;verticalAlign=middle;whiteSpace=wrap;rounded=0;" vertex="1" parent="WIyWlLk6GJQsqaUBKTNV-1">
          <mxGeometry x="315" y="245" width="40" height="20" as="geometry" />
        </mxCell>
        <mxCell id="hwNWxIIS-WWgifaIi0Sa-19" value="" style="rounded=0;whiteSpace=wrap;html=1;" vertex="1" parent="WIyWlLk6GJQsqaUBKTNV-1">
          <mxGeometry x="100" y="230" width="90" height="40" as="geometry" />
        </mxCell>
        <mxCell id="hwNWxIIS-WWgifaIi0Sa-20" value="" style="rounded=0;whiteSpace=wrap;html=1;" vertex="1" parent="WIyWlLk6GJQsqaUBKTNV-1">
          <mxGeometry x="520" y="230" width="90" height="40" as="geometry" />
        </mxCell>
        <mxCell id="hwNWxIIS-WWgifaIi0Sa-21" value="EMPLOYEES" style="text;html=1;strokeColor=none;fillColor=none;align=center;verticalAlign=middle;whiteSpace=wrap;rounded=0;" vertex="1" parent="WIyWlLk6GJQsqaUBKTNV-1">
          <mxGeometry x="125" y="240" width="40" height="20" as="geometry" />
        </mxCell>
        <mxCell id="hwNWxIIS-WWgifaIi0Sa-22" value="CUSTOMER" style="text;html=1;strokeColor=none;fillColor=none;align=center;verticalAlign=middle;whiteSpace=wrap;rounded=0;" vertex="1" parent="WIyWlLk6GJQsqaUBKTNV-1">
          <mxGeometry x="545" y="240" width="40" height="20" as="geometry" />
        </mxCell>
        <mxCell id="hwNWxIIS-WWgifaIi0Sa-24" value="" style="endArrow=none;html=1;" edge="1" parent="WIyWlLk6GJQsqaUBKTNV-1" target="hwNWxIIS-WWgifaIi0Sa-25">
          <mxGeometry width="50" height="50" relative="1" as="geometry">
            <mxPoint x="248" y="202" as="sourcePoint" />
            <mxPoint x="268" y="207" as="targetPoint" />
          </mxGeometry>
        </mxCell>
        <mxCell id="hwNWxIIS-WWgifaIi0Sa-25" value="DASHBOARD" style="rounded=0;whiteSpace=wrap;html=1;" vertex="1" parent="WIyWlLk6GJQsqaUBKTNV-1">
          <mxGeometry x="200" y="235" width="90" height="35" as="geometry" />
        </mxCell>
        <mxCell id="hwNWxIIS-WWgifaIi0Sa-26" value="" style="endArrow=none;html=1;entryX=0.535;entryY=0.31;entryDx=0;entryDy=0;entryPerimeter=0;" edge="1" parent="WIyWlLk6GJQsqaUBKTNV-1" target="hwNWxIIS-WWgifaIi0Sa-16">
          <mxGeometry width="50" height="50" relative="1" as="geometry">
            <mxPoint x="430" y="240" as="sourcePoint" />
            <mxPoint x="460" y="215" as="targetPoint" />
          </mxGeometry>
        </mxCell>
        <mxCell id="hwNWxIIS-WWgifaIi0Sa-28" value="" style="strokeWidth=2;html=1;shape=mxgraph.flowchart.annotation_2;align=left;labelPosition=right;pointerEvents=1;direction=south;" vertex="1" parent="WIyWlLk6GJQsqaUBKTNV-1">
          <mxGeometry x="170" y="270" width="350" height="50" as="geometry" />
        </mxCell>
        <mxCell id="hwNWxIIS-WWgifaIi0Sa-29" value="AGRICULTURAL" style="rounded=0;whiteSpace=wrap;html=1;" vertex="1" parent="WIyWlLk6GJQsqaUBKTNV-1">
          <mxGeometry x="125" y="320" width="95" height="40" as="geometry" />
        </mxCell>
        <mxCell id="hwNWxIIS-WWgifaIi0Sa-30" value="ELECTRICAL" style="rounded=0;whiteSpace=wrap;html=1;" vertex="1" parent="WIyWlLk6GJQsqaUBKTNV-1">
          <mxGeometry x="465" y="320" width="105" height="40" as="geometry" />
        </mxCell>
        <mxCell id="hwNWxIIS-WWgifaIi0Sa-31" value="BUILDING IMPLEMENTS" style="rounded=0;whiteSpace=wrap;html=1;" vertex="1" parent="WIyWlLk6GJQsqaUBKTNV-1">
          <mxGeometry x="304" y="320" width="96" height="40" as="geometry" />
        </mxCell>
        <mxCell id="hwNWxIIS-WWgifaIi0Sa-32" value="PRODUCTS" style="rounded=0;whiteSpace=wrap;html=1;" vertex="1" parent="WIyWlLk6GJQsqaUBKTNV-1">
          <mxGeometry x="490" y="110" width="120" height="60" as="geometry" />
        </mxCell>
        <mxCell id="hwNWxIIS-WWgifaIi0Sa-35" style="edgeStyle=orthogonalEdgeStyle;rounded=0;orthogonalLoop=1;jettySize=auto;html=1;exitX=1;exitY=0.5;exitDx=0;exitDy=0;exitPerimeter=0;" edge="1" parent="WIyWlLk6GJQsqaUBKTNV-1" source="hwNWxIIS-WWgifaIi0Sa-28" target="hwNWxIIS-WWgifaIi0Sa-28">
          <mxGeometry relative="1" as="geometry" />
        </mxCell>
        <mxCell id="hwNWxIIS-WWgifaIi0Sa-40" value="Text" style="text;html=1;strokeColor=none;fillColor=none;align=center;verticalAlign=middle;whiteSpace=wrap;rounded=0;" vertex="1" parent="WIyWlLk6GJQsqaUBKTNV-1">
          <mxGeometry x="390" y="280" width="40" height="20" as="geometry" />
        </mxCell>
        <mxCell id="hwNWxIIS-WWgifaIi0Sa-41" value="" style="strokeWidth=2;html=1;shape=mxgraph.flowchart.annotation_2;align=left;labelPosition=right;pointerEvents=1;direction=west;" vertex="1" parent="WIyWlLk6GJQsqaUBKTNV-1">
          <mxGeometry x="130" y="90" width="80" height="100" as="geometry" />
        </mxCell>
        <mxCell id="hwNWxIIS-WWgifaIi0Sa-43" value="PRODUCT" style="rounded=0;whiteSpace=wrap;html=1;" vertex="1" parent="WIyWlLk6GJQsqaUBKTNV-1">
          <mxGeometry x="60" y="60" width="70" height="60" as="geometry" />
        </mxCell>
        <mxCell id="hwNWxIIS-WWgifaIi0Sa-44" value="CUSTOMER" style="rounded=0;whiteSpace=wrap;html=1;" vertex="1" parent="WIyWlLk6GJQsqaUBKTNV-1">
          <mxGeometry x="60" y="150" width="70" height="60" as="geometry" />
        </mxCell>
        <mxCell id="hwNWxIIS-WWgifaIi0Sa-45" value="Text" style="text;html=1;strokeColor=none;fillColor=none;align=center;verticalAlign=middle;whiteSpace=wrap;rounded=0;" vertex="1" parent="WIyWlLk6GJQsqaUBKTNV-1">
          <mxGeometry x="450" y="290" width="40" height="20" as="geometry" />
        </mxCell>
      </root>
    </mxGraphModel>
  </diagram>
</mxfile>
